<svg width="1203" height="836" viewBox="0 0 1203 836" fill="none" xmlns="http://www.w3.org/2000/svg">
<path fill-rule="evenodd" clip-rule="evenodd" d="M307.149 835.653H462.552L647.207 744.367L839.175 835.653L994.578 760.167V716.279L1043.94 744.367L1203 668.881V642.549L1098.79 542.486L998.234 519.664V445.934L895.851 347.626H733.135L548.48 437.156L358.34 345.87L202.938 423.112V468.755L155.403 445.934L0 519.664V544.241L98.7264 640.793L202.938 667.126V737.345L307.149 835.653ZM497.289 670.637L596.015 719.79L462.552 788.254H307.149L255.957 737.345L305.321 640.793L98.7264 589.884L51.1915 542.486L155.403 495.087L202.938 542.486L361.997 579.351L380.28 565.307L259.614 445.934L356.512 398.535L482.663 516.153V660.104L433.299 617.972L358.34 688.191L413.188 737.345L508.258 688.191L497.289 670.637ZM941.558 737.345L839.175 784.743L720.337 670.637V523.175L766.044 567.062L842.831 495.087L787.983 445.934L691.085 495.087L703.883 512.642L603.328 461.733L733.135 395.024L895.851 398.535L941.558 445.934L895.851 542.486L1098.79 593.395L1146.32 639.038L1043.94 689.947L994.578 639.038L842.831 602.172L819.064 619.727L941.558 737.345Z" fill="black"/>
<path d="M818.487 141.818L814.452 175.927L797.577 201.911L804.026 221.65L792.894 237.883L761.408 236.067L740.487 219.648L727.395 194.986L715.822 173.464L697.079 151.536L687.353 185.492L709.698 230.086L741.475 257.332L704.673 244.527L686.072 223.692L687.353 185.492L697.079 151.536L695.41 130.066L692.203 107.016L697.147 92.8076L725.423 89.5904L741.676 99.1627L749.077 117.666L753.735 119.287L754.021 103.458L740.766 85.2679L719.57 77.8926L698.911 77.2319L681.075 87.2154L674.916 104.917L678.588 140.141L669.429 166.461L656.636 190.471L657.624 228.155L680.954 257.163L707.343 278.879L743.172 288.474L777.576 281.905L733.277 299.653L699.503 287.901L673.136 252.615L641.318 234.493L603.654 239.927L569.39 265.606L563.532 295.947L572.289 330.067L583.93 376.158C579.071 381.866 569.079 394.073 567.976 397.241C566.874 400.409 567.564 402.929 568.047 403.794L592.447 374.944L589.292 335.983L581.933 302.349L585.723 280.951L605.079 262.096L625.668 256.204L648.728 264.228L667.967 283.978L689.373 317.016L723.146 328.768L762.258 325.927L785.917 311.964L777.813 335.256L743.843 356.337L690.238 364.058L619.111 381.611L591.165 419.149L587.636 462.312L617.143 496.08L655.342 509.372L705.526 488.971L713.608 479.25L688.522 483.054L657.512 486.626L633.288 478.197L615.761 452.775L620.555 420.236L650.777 399.418L719.968 392.682L774.101 380.444L809.541 342.379L811.441 375.942L825.797 411.227L862.95 450.789L891.749 479.088L909.741 510.678L907.471 529.211L895.963 550.274L873.894 561.918L845.031 562.32L828.596 554.773L808.303 532.045L794.199 507.292L791.484 512.092L815.339 554.599L840.979 573.966L879.858 577.049L911.427 560.616L928.899 536.667L933.723 513.8L930.18 492.461L918.618 470.159L902.123 449.275L884.26 431.57L867.562 414.27L853.001 394.581L845.509 377.09L844.195 358.354L846.83 341.776L852.965 355.662L867.304 374.49L892.367 390.261L912.743 394.74L938.76 391.259L972.718 382.969L988.558 382.475L1008.56 391.784C1012.63 398.337 1020.89 411.585 1021.32 412.152C1021.75 412.719 1024.34 421.213 1025.59 425.389L1015.66 450.919L1010.98 456.863L987.655 475.12L967.48 491.078L958.232 506.4L956.782 521.823L963.18 539.456L966.016 537.309L963.769 524.255L967.316 509.56L980.523 495.617L1002.8 480.388L1022.37 468.399L1033.13 456.997L1044.92 432.116L1043.53 407.607L1031.12 383.968L1016.66 368.492L996.986 358.251L981.958 356.416L954.228 359.562L922.873 365.625L901.768 363.243L887.906 349.802L874.876 314.456L892.768 335.827L907.766 346.007L926.602 354.911L954.228 359.562L981.958 356.416L987.609 353.682L1011.85 337.309L1022.93 318.97L1030.28 293.328L1041.81 264.7L1047.6 257.054L1066.5 237.257L1068.89 222.158L1057.37 201.963L1047.89 193.961L1030.05 185.928L997.208 198.522L995.506 203.414L1027.05 194.546L1044.24 204.442L1052.35 216.404L1047.41 230.612L1024.08 248.869L1012.04 263.218L1000.53 296.292L991.766 316.222L968.248 331.278L945.623 331.762L917.005 319.454L944.785 318.414L965.911 313.231L1000.53 296.292L1012.04 263.218L934.276 287.079L907.915 287.045L893.748 272.976L890.206 251.638L905.419 239.436L909.716 209.075L926.329 179.343L920.936 132.554L891.743 98.6336L851.759 108.483L818.487 141.818Z" fill="#2F2E2E"/>
<path d="M669.429 166.461L678.588 140.141L636.045 119.071L577.468 125.322L555.437 151.864L551.322 186.205L553.616 225.388L537.206 251.535L534.694 258.756L558.121 238.706L568.414 209.125L571.305 167.047L586.711 146.034L627.778 142.829L669.429 166.461Z" fill="#2F2E2E"/>
<path d="M1078.19 274.224L1041.81 264.7L1030.28 293.328L1069.43 299.379L1084.62 306.754L1099.15 323.557L1106.78 348.147L1093.95 374.497L1074.21 398.962L1068.22 416.198L1070.59 431.126L1076.6 443.138L1081.26 444.759L1077.12 433.395L1078.23 419.683L1087.49 403.582L1109.09 379.765L1126.58 355.036L1127.41 327.125L1108.87 295.606L1078.19 274.224Z" fill="#2F2E2E"/>
<path d="M1012.04 263.218L934.276 287.079L907.914 287.045L893.748 272.976L890.206 251.638L905.419 239.436L909.716 209.075L926.329 179.343L920.936 132.554L891.743 98.6336L851.759 108.483L818.487 141.818L814.452 175.927L797.577 201.911L804.026 221.65L792.894 237.883L761.408 236.067L740.487 219.648L727.395 194.986L715.822 173.464L697.079 151.536M1012.04 263.218L1024.08 248.869L1047.41 230.612L1052.35 216.404L1044.24 204.442L1027.05 194.546L995.506 203.414L997.208 198.522L1030.05 185.928L1047.89 193.961L1057.37 201.963L1068.89 222.158L1066.5 237.257L1047.6 257.054L1041.81 264.7M1012.04 263.218L1000.53 296.292M1041.81 264.7L1078.19 274.224L1108.87 295.606L1127.41 327.125L1126.58 355.036L1109.09 379.765L1087.49 403.582L1078.23 419.683L1077.12 433.395L1081.26 444.759L1076.6 443.138L1070.59 431.126L1068.22 416.198L1074.21 398.962L1093.95 374.497L1106.78 348.147L1099.15 323.557L1084.62 306.754L1069.43 299.379L1030.28 293.328M1041.81 264.7L1030.28 293.328M1030.28 293.328L1022.93 318.97L1011.85 337.309L987.609 353.682L981.958 356.416M981.958 356.416L996.986 358.251L1016.66 368.492L1031.12 383.968L1043.53 407.607L1044.92 432.116L1033.13 456.997L1022.37 468.399L1002.8 480.388L980.523 495.617L967.316 509.56L963.769 524.255L966.016 537.309L963.18 539.456L956.782 521.823L958.232 506.4L967.48 491.078L987.655 475.12L1010.98 456.863L1015.66 450.919L1025.59 425.389C1024.34 421.213 1021.75 412.719 1021.32 412.152C1020.89 411.585 1012.63 398.337 1008.56 391.784L988.558 382.475L972.718 382.969L938.76 391.259L912.743 394.74L892.367 390.261L867.304 374.49L852.965 355.662L846.83 341.776M981.958 356.416L954.228 359.562M846.83 341.776L844.195 358.354L845.509 377.09L853.001 394.581L867.562 414.27L884.26 431.57L902.123 449.275L918.618 470.159L930.18 492.461L933.723 513.8L928.899 536.667L911.427 560.616L879.858 577.049L840.979 573.966L815.339 554.599L791.484 512.092L794.199 507.292L808.303 532.045L828.596 554.773L845.031 562.32L873.894 561.918L895.963 550.274L907.471 529.211L909.741 510.678L891.749 479.088L862.95 450.789L825.797 411.227L811.441 375.942L809.541 342.379M846.83 341.776L860.122 297.572M809.541 342.379L774.101 380.444L719.968 392.682L650.777 399.418L620.555 420.237L615.761 452.775L633.288 478.197L657.512 486.626L688.522 483.054L713.608 479.25L705.526 488.971L655.342 509.372L617.143 496.08L587.636 462.312L591.165 419.149L619.111 381.611L690.238 364.058L743.843 356.337L777.813 335.256L785.917 311.964M809.541 342.379L826.561 293.466M785.917 311.964L762.258 325.927L723.146 328.768L689.373 317.016L667.967 283.978L648.728 264.228L625.668 256.204L605.079 262.096L585.723 280.951L581.933 302.349L589.292 335.983L592.447 374.944L568.047 403.794C567.564 402.929 566.874 400.409 567.976 397.241C569.079 394.073 579.071 381.866 583.93 376.158L572.289 330.067L563.532 295.947L569.39 265.606L603.654 239.927L641.318 234.493L673.136 252.615L699.503 287.901L733.277 299.653L777.576 281.905M785.917 311.964L792.887 291.933L802.227 269.593M777.576 281.905L743.172 288.474L707.343 278.879L680.954 257.163L657.624 228.155L656.636 190.471L669.429 166.461M777.576 281.905L796.163 256.255M669.429 166.461L678.588 140.141M669.429 166.461L627.778 142.829L586.711 146.034L571.305 167.047L568.414 209.125L558.121 238.706L534.694 258.756L537.206 251.535L553.616 225.388L551.322 186.205L555.437 151.864L577.468 125.323L636.045 119.071L678.588 140.141M678.588 140.141L674.916 104.917L681.075 87.2154L698.911 77.2319L719.57 77.8926L740.766 85.2679L754.021 103.458L753.735 119.287L749.077 117.666L741.676 99.1627L725.423 89.5904L697.147 92.8076L692.203 107.016L695.41 130.066L697.079 151.536M697.079 151.536L687.353 185.492M741.475 257.332L709.698 230.086L687.353 185.492M741.475 257.332L704.673 244.527L686.072 223.692L687.353 185.492M741.475 257.332L764.676 260.444L794.948 247.737M954.228 359.562L922.873 365.625L901.768 363.243L887.906 349.802L874.876 314.456M954.228 359.562L926.602 354.911L907.766 346.007L892.768 335.827L874.876 314.456M874.876 314.456L873.512 287.608M1000.53 296.292L991.766 316.222L968.248 331.278L945.624 331.762L917.005 319.454M1000.53 296.292L965.911 313.231L944.785 318.414L917.005 319.454M917.005 319.454L894.18 305.506L880.197 277.401" stroke="black" stroke-width="5"/>
<path d="M880.566 237.316L877.306 230.176L880.467 221.092L884.722 211.867L890.778 207.969L895.67 209.671L897.765 216.405L896.255 224.497L893.125 231.242L888.78 235.474L884.931 237.53L880.566 237.316Z" fill="black"/>
<path d="M817.911 215.515L814.367 212.193L813.375 204.536L816.131 196.617L819.97 189.336L826.492 185.6L831.444 188.628L831.686 199.941L829.417 206.462L824.727 213.186L817.911 215.515Z" fill="black"/>
<path d="M822.831 232.894L816.775 230.787L810.72 222.674L806.388 202.105L809.792 192.322L817.641 182.52L828.519 179.777M828.519 179.777L835.576 188.761L833.143 207.759L833.466 218.839L836.98 224.5M828.519 179.777L826.991 165.406L831.286 153.061L840.545 136.96L855.191 120.383L870.91 111.23M864.961 231.886L870.379 229.072L877.804 215.988L886.586 206.51L897.696 203.848M897.696 203.848L904.055 212.588L903.192 224.822L899.788 234.605L886.419 249.014L875.704 251.292L868.949 248.941M897.696 203.848L907.115 193.286L915.716 173.822L915.607 152.372L909.229 133.18L903.053 122.414M817.911 215.515L814.367 212.193L813.375 204.536L816.131 196.617L819.97 189.336L826.492 185.6L831.444 188.628L831.686 199.941L829.417 206.462L824.727 213.186L817.911 215.515ZM880.566 237.316L877.306 230.176L880.467 221.092L884.722 211.867L890.778 207.969L895.67 209.671L897.765 216.405L896.255 224.497L893.125 231.242L888.78 235.474L884.931 237.53L880.566 237.316Z" stroke="black" stroke-width="3"/>
<path d="M924.075 549.33L895.961 542.425L906.812 519.243L926.295 478.304L935.42 488.909L939.366 510.611L934.433 537.492L924.075 549.33Z" fill="black"/>
<path d="M895.714 347.843H847.871L864.394 383.528L905.332 399.14L942.572 392.945L895.714 347.843Z" fill="black"/>
</svg>
