<svg width="778" height="599" viewBox="0 0 778 599" fill="none" xmlns="http://www.w3.org/2000/svg">
<path d="M315.204 85.6054L324.627 128.322L315.204 166.64L331.223 187.684L324.627 211.869L285.994 222.862L253.957 211.869L227.888 187.684L204.959 166.64L173.236 148.109L175.749 193.024L221.292 237.31L270.918 256.784H221.292L190.197 239.509L175.749 193.024L173.236 148.109L162.243 122.982L148.737 96.5985V77.4391L181.403 61.7346L204.959 66.446L221.606 85.6054H227.888L221.606 66.446L198.049 50.1133H169.467L144.34 57.9656L127.065 77.4391V101.31L146.225 142.141V177.633L140.885 211.869L157.846 256.784L198.049 281.911L238.881 296.987L285.994 293.532L324.627 271.232L278.77 311.121H233.227L186.742 279.712L140.885 271.232L97.8549 293.532L67.3882 338.761L73.0418 377.708L97.8549 415.085L131.148 465.653C127.693 474.552 120.783 493.419 120.783 497.69C120.783 501.962 122.668 504.705 123.61 505.542L140.885 460.628L120.783 415.085L97.8549 377.708L93.4576 350.382L108.848 319.602L131.148 303.897H162.243L193.652 319.602L233.227 350.382H278.77L324.627 330.595L347.242 303.897V335.306L315.204 374.881L253.957 406.604L175.749 457.487L157.846 514.337L171.666 567.732L221.292 596H272.802L324.627 550.457L330.281 535.381L301.699 550.457L265.892 567.732H233.227L201.504 544.489L193.652 503.344L221.292 465.653L301.699 428.591L361.69 391.214L388.387 330.595L404.72 370.17L436.757 406.604L498.004 438.641L544.489 460.628L579.353 491.094L584.379 514.337L579.353 544.489L557.681 567.732L523.131 580.296L500.203 578.097L466.281 559.252L438.956 535.381L437.699 542.291L484.184 583.436L523.131 596L571.187 583.436L602.282 550.457L613.275 514.337L609.506 484.812L596.314 460.628L573.071 438.641L544.489 420.424L515.593 406.604L488.267 392.784L462.512 375.195L446.18 357.292L436.757 335.306L432.988 314.262L446.18 328.396L471.307 345.043L508.055 353.523L534.439 350.382L564.277 335.306L601.654 311.121L620.499 303.897L648.453 306.724C656.096 312.901 671.57 325.381 672.324 325.883C673.077 326.386 679.757 335.516 683.003 340.017L681.746 374.881L678.605 383.99L658.19 415.713L640.601 443.353L635.889 465.653L640.601 484.812L655.677 503.344L658.19 499.575L650.023 484.812L648.139 465.653L658.19 443.353L678.605 415.713L697.137 393.099L705.303 374.881L709.072 340.017L697.137 311.121L672.324 287.879L648.453 275.315L620.499 271.232L601.654 275.315L569.617 290.706L534.439 311.121L508.055 317.089L485.755 306.724L455.288 269.662L485.755 287.879L508.055 293.846L534.439 296.673L569.617 290.706L601.654 275.315L607.307 269.662L629.607 239.823L635.261 213.126L633.377 179.204L635.261 139.943L639.03 128.322L653.478 96.5985L650.023 77.4391L627.723 57.9656L612.961 52.312L588.148 50.1133L553.912 79.0095V85.6054L588.148 61.7346L612.961 66.446L627.723 77.4391V96.5985L607.307 128.322L598.827 150.622V195.222L596.628 222.862L574.642 250.816L547.63 260.867L508.055 258.04L541.034 245.163L564.277 230.086L598.827 195.222V150.622L515.279 211.869L483.556 222.862L460.628 211.869L447.436 187.684L460.628 166.64L453.09 128.322L460.628 85.6054L434.558 31.5821L385.246 3L341.274 31.5821L315.204 85.6054Z" fill="#2F2E2E"/>
<path d="M146.225 177.633V142.141L86.2336 134.603L18.3904 166.64L3 207.786L12.4227 250.816L31.5821 296.987L22.7876 335.306V345.043L42.5752 311.121V271.232L28.4412 219.407L38.178 187.684L86.2336 166.64L146.225 177.633Z" fill="#2F2E2E"/>
<path d="M683.003 136.174L635.261 139.943L633.377 179.204L683.003 170.095L704.361 172.608L728.86 186.742L748.333 213.126L743.936 250.188L730.43 287.879V311.121L739.539 328.082L751.788 340.017H758.07L748.333 328.082L743.936 311.121L748.333 287.879L764.352 250.188L775.031 213.126L764.352 179.204L728.86 149.051L683.003 136.174Z" fill="#2F2E2E"/>
<path d="M598.827 150.622L515.279 211.869L483.556 222.862L460.628 211.869L447.436 187.684L460.628 166.64L453.09 128.322L460.628 85.6054L434.558 31.5821L385.246 3L341.274 31.5821L315.204 85.6054L324.627 128.322L315.204 166.64L331.223 187.684L324.627 211.869L285.994 222.862L253.957 211.869L227.888 187.684L204.959 166.64L173.236 148.109M598.827 150.622L607.307 128.322L627.723 96.5985V77.4391L612.961 66.446L588.148 61.7346L553.912 85.6054V79.0095L588.148 50.1133L612.961 52.312L627.723 57.9656L650.023 77.4391L653.478 96.5985L639.03 128.322L635.261 139.943M598.827 150.622V195.222M635.261 139.943L683.003 136.174L728.86 149.051L764.352 179.204L775.031 213.126L764.352 250.188L748.333 287.879L743.936 311.121L748.333 328.082L758.07 340.017H751.788L739.539 328.082L730.43 311.121V287.879L743.936 250.188L748.333 213.126L728.86 186.742L704.361 172.608L683.003 170.095L633.377 179.204M635.261 139.943L633.377 179.204M633.377 179.204L635.261 213.126L629.607 239.823L607.307 269.662L601.654 275.315M601.654 275.315L620.499 271.232L648.453 275.315L672.324 287.879L697.137 311.121L709.072 340.017L705.303 374.881L697.137 393.099L678.605 415.713L658.19 443.353L648.139 465.653L650.023 484.812L658.19 499.575L655.677 503.344L640.601 484.812L635.889 465.653L640.601 443.353L658.19 415.713L678.605 383.99L681.746 374.881L683.003 340.017C679.757 335.516 673.077 326.386 672.324 325.883C671.57 325.381 656.096 312.901 648.453 306.724L620.499 303.897L601.654 311.121L564.277 335.306L534.439 350.382L508.055 353.523L471.307 345.043L446.18 328.396L432.988 314.262M601.654 275.315L569.617 290.706M432.988 314.262L436.757 335.306L446.18 357.292L462.512 375.195L488.267 392.784L515.593 406.604L544.489 420.424L573.071 438.641L596.314 460.628L609.506 484.812L613.275 514.337L602.282 550.457L571.187 583.436L523.131 596L484.184 583.436L437.699 542.291L438.956 535.381L466.281 559.252L500.203 578.097L523.131 580.296L557.681 567.732L579.353 544.489L584.379 514.337L579.353 491.094L544.489 460.628L498.004 438.641L436.757 406.604L404.72 370.17L388.387 330.595M432.988 314.262L430.475 255.528M388.387 330.595L361.69 391.214L301.699 428.591L221.292 465.653L193.652 503.344L201.504 544.489L233.227 567.732H265.892L301.699 550.457L330.281 535.381L324.627 550.457L272.802 596H221.292L171.666 567.732L157.846 514.337L175.749 457.487L253.957 406.604L315.204 374.881L347.242 335.306V303.897M388.387 330.595V264.636M347.242 303.897L324.627 330.595L278.77 350.382H233.227L193.652 319.602L162.243 303.897H131.148L108.848 319.602L93.4576 350.382L97.8549 377.708L120.783 415.085L140.885 460.628L123.61 505.542C122.668 504.705 120.783 501.962 120.783 497.69C120.783 493.419 127.693 474.552 131.148 465.653L97.8549 415.085L73.0418 377.708L67.3882 338.761L97.8549 293.532L140.885 271.232L186.742 279.712L233.227 311.121H278.77L324.627 271.232M347.242 303.897V276.886L349.126 246.105M324.627 271.232L285.994 293.532L238.881 296.987L198.049 281.911L157.846 256.784L140.885 211.869L146.225 177.633M324.627 271.232L336.248 232.599M146.225 177.633V142.141M146.225 177.633L86.2336 166.64L38.178 187.684L28.4412 219.407L42.5752 271.232V311.121L22.7876 345.043V335.306L31.5821 296.987L12.4227 250.816L3 207.786L18.3904 166.64L86.2336 134.603L146.225 142.141M146.225 142.141L127.065 101.31V77.4391L144.34 57.9656L169.467 50.1133H198.049L221.606 66.446L227.888 85.6054H221.606L204.959 66.446L181.403 61.7346L148.737 77.4391V96.5985L162.243 122.982L173.236 148.109M173.236 148.109L175.749 193.024M270.918 256.784L221.292 237.31L175.749 193.024M270.918 256.784H221.292L190.197 239.509L175.749 193.024M270.918 256.784L300.128 250.816L331.223 222.862M569.617 290.706L534.439 311.121L508.055 317.089L485.755 306.724L455.288 269.662M569.617 290.706L534.439 296.673L508.055 293.846L485.755 287.879L455.288 269.662M455.288 269.662L442.41 237.939M598.827 195.222L596.628 222.862L574.642 250.816L547.63 260.867L508.055 258.04M598.827 195.222L564.277 230.086L541.034 245.163L508.055 258.04M508.055 258.04L474.762 250.816L446.18 222.862" stroke="black" stroke-width="5"/>
<path d="M429.847 174.493L422.937 167.269V155.019L424.193 142.141L429.847 134.917H436.443L441.782 142.141L443.353 152.506L442.411 161.929L438.956 168.839L435.187 172.922L429.847 174.493Z" fill="black"/>
<path d="M345.357 174.493L339.703 171.98L335.306 163.185V152.506L336.877 142.141L343.158 134.917L350.382 136.488L355.408 149.994V158.788L352.581 168.839L345.357 174.493Z" fill="black"/>
<path d="M358.549 193.338H350.382L339.703 186.114L325.884 163.185V149.994L331.223 134.917L343.158 127.065M343.158 127.065L355.408 134.917L360.433 158.788L365.459 171.98L372.055 177.319M343.158 127.065L335.306 110.418V93.7717L339.703 70.5291L350.382 44.4597L365.459 26.8707M408.803 174.493L414.143 168.839L417.598 149.994L424.193 134.917L436.443 127.065M436.443 127.065L447.75 134.917L451.833 149.994V163.185L441.782 186.114L429.847 193.338H420.738M436.443 127.065L443.353 110.418L445.551 83.4067L436.443 57.6514L420.738 37.2357L408.803 26.8707M345.357 174.493L339.703 171.98L335.306 163.185V152.506L336.877 142.141L343.158 134.917L350.382 136.488L355.408 149.994V158.788L352.581 168.839L345.357 174.493ZM429.847 174.493L422.937 167.269V155.019L424.193 142.141L429.847 134.917H436.443L441.782 142.141L443.353 152.506L442.411 161.929L438.956 168.839L435.187 172.922L429.847 174.493Z" stroke="black" stroke-width="3"/>
</svg>
