<svg width="1165" height="474" viewBox="0 0 1165 474" fill="none" xmlns="http://www.w3.org/2000/svg">
<path fill-rule="evenodd" clip-rule="evenodd" d="M297.447 474H447.941L626.763 385.656L812.667 474L963.161 400.946V358.473L1010.97 385.656L1165 312.602V287.118L1064.08 190.28L966.702 168.194V96.8387L867.553 1.69892H709.977L531.155 88.3441L347.021 0L196.527 74.7527V118.925L150.494 96.8387L0 168.194V191.979L95.6079 285.419L196.527 310.903V378.86L297.447 474ZM481.581 314.301L577.188 361.871L447.941 428.129H297.447L247.872 378.86L295.676 285.419L95.6079 236.151L49.5745 190.28L150.494 144.409L196.527 190.28L350.562 225.957L368.267 212.366L251.413 96.8387L345.251 50.9677L467.416 164.796V304.108L419.612 263.333L347.021 331.29L400.137 378.86L492.204 331.29L481.581 314.301ZM911.816 378.86L812.667 424.731L697.584 314.301V171.591L741.846 214.065L816.208 144.409L763.093 96.8387L669.255 144.409L681.649 161.398L584.271 112.129L709.977 47.5699L867.553 50.9677L911.816 96.8387L867.553 190.28L1064.08 239.548L1110.11 283.72L1010.97 332.989L963.161 283.72L816.208 248.043L793.192 265.032L911.816 378.86Z" fill="#fff"/>
</svg>
